# Blender 4.0.2
# www.blender.org
mtllib grassBlade.mtl
o Plane
v -1.000000 -1.000000 -0.000000
v 1.000000 -1.000000 -0.000000
v -0.888678 3.539766 0.000000
v 0.888678 3.539766 0.000000
v -0.774163 6.902761 0.000000
v 0.774163 6.902761 0.000000
v -0.219513 21.169556 0.000000
v 0.219513 21.169556 0.000000
v 0.000000 23.784420 0.000001
v -0.702832 9.601576 0.000000
v 0.702832 9.601576 0.000000
v -0.315359 19.122084 0.000000
v 0.315359 19.122084 0.000000
v 0.428110 17.064512 0.000000
v -0.428110 17.064512 0.000000
v -0.544689 14.609625 0.000000
v 0.544689 14.609625 0.000000
v -0.636454 12.152767 0.000000
v 0.636454 12.152767 0.000000
v -1.000000 -1.000000 -0.000000
v 1.000000 -1.000000 -0.000000
v -0.888678 3.539766 0.000000
v 0.888678 3.539766 0.000000
v -0.774163 6.902761 0.000000
v 0.774163 6.902761 0.000000
v -0.219513 21.169556 0.000000
v 0.219513 21.169556 0.000000
v 0.000000 23.784420 0.000001
v -0.702832 9.601576 0.000000
v 0.702832 9.601576 0.000000
v -0.315359 19.122084 0.000000
v 0.315359 19.122084 0.000000
v 0.428110 17.064512 0.000000
v -0.428110 17.064512 0.000000
v -0.544689 14.609625 0.000000
v 0.544689 14.609625 0.000000
v -0.636454 12.152767 0.000000
v 0.636454 12.152767 0.000000
v 1.000000 -1.000000 0.000001
v -1.000000 -1.000000 0.000001
v 0.888678 3.539766 0.000001
v -0.888678 3.539766 0.000001
v 0.774163 6.902761 0.000000
v -0.774163 6.902761 0.000000
v 0.219513 21.169556 0.000000
v -0.219513 21.169556 0.000000
v -0.000000 23.784420 -0.000000
v 0.702832 9.601576 0.000000
v -0.702832 9.601576 0.000000
v 0.315359 19.122084 0.000000
v -0.315359 19.122084 0.000000
v -0.428110 17.064512 0.000000
v 0.428110 17.064512 0.000000
v 0.544689 14.609625 0.000000
v -0.544689 14.609625 0.000000
v 0.636454 12.152767 0.000000
v -0.636454 12.152767 0.000000
vn -0.0000 -0.0000 1.0000
vn -0.0000 -0.0000 -1.0000
vt 1.000000 0.000000
vt 0.000000 1.000000
vt 0.000000 0.000000
vt 1.000000 1.000000
s 0
f 2/1/1 3/2/1 1/3/1
f 4/4/1 5/2/1 3/2/1
f 6/4/1 10/2/1 5/2/1
f 7/2/1 8/4/1 9/2/1
f 21/1/1 22/2/1 20/3/1
f 11/4/1 18/2/1 10/2/1
f 13/4/1 7/2/1 12/2/1
f 14/4/1 12/2/1 15/2/1
f 17/4/1 15/2/1 16/2/1
f 19/4/1 16/2/1 18/2/1
f 23/4/1 24/2/1 22/2/1
f 25/4/1 29/2/1 24/2/1
f 26/2/1 27/4/1 28/2/1
f 30/4/1 37/2/1 29/2/1
f 32/4/1 26/2/1 31/2/1
f 33/4/1 31/2/1 34/2/1
f 36/4/1 34/2/1 35/2/1
f 38/4/1 35/2/1 37/2/1
f 40/1/2 41/2/2 39/3/2
f 41/2/2 44/4/2 43/2/2
f 44/4/2 48/2/2 43/2/2
f 45/2/2 46/4/2 47/2/2
f 49/4/2 56/2/2 48/2/2
f 51/4/2 45/2/2 50/2/2
f 52/4/2 50/2/2 53/2/2
f 55/4/2 53/2/2 54/2/2
f 57/4/2 54/2/2 56/2/2
f 2/1/1 4/4/1 3/2/1
f 4/4/1 6/4/1 5/2/1
f 6/4/1 11/4/1 10/2/1
f 21/1/1 23/4/1 22/2/1
f 11/4/1 19/4/1 18/2/1
f 13/4/1 8/4/1 7/2/1
f 14/4/1 13/4/1 12/2/1
f 17/4/1 14/4/1 15/2/1
f 19/4/1 17/4/1 16/2/1
f 23/4/1 25/4/1 24/2/1
f 25/4/1 30/4/1 29/2/1
f 30/4/1 38/4/1 37/2/1
f 32/4/1 27/4/1 26/2/1
f 33/4/1 32/4/1 31/2/1
f 36/4/1 33/4/1 34/2/1
f 38/4/1 36/4/1 35/2/1
f 40/1/2 42/4/2 41/2/2
f 41/2/2 42/4/2 44/4/2
f 44/4/2 49/4/2 48/2/2
f 49/4/2 57/4/2 56/2/2
f 51/4/2 46/4/2 45/2/2
f 52/4/2 51/4/2 50/2/2
f 55/4/2 52/4/2 53/2/2
f 57/4/2 55/4/2 54/2/2
